<?xml version="1.0" encoding="UTF-8"?>
<svg width="180" height="180" viewBox="0 0 180 180" fill="none" xmlns="http://www.w3.org/2000/svg">
  <!-- Background -->
  <rect width="180" height="180" fill="#0f172a"/>
  
  <!-- BG letters for Bulgaria -->
  <g transform="translate(45, 45) scale(3)">
    <path d="M10 10C10 9.44772 10.4477 9 11 9H14C15.6569 9 17 10.3431 17 12C17 12.7956 16.6839 13.5587 16.1213 14.1213C16.6839 14.6839 17 15.4044 17 16.2C17 17.8569 15.6569 19.2 14 19.2H11C10.4477 19.2 10 18.7523 10 18.2V10Z" fill="white"/>
    <path d="M12 11.4V13.2H13.6C13.8209 13.2 14 13.0209 14 12.8V11.8C14 11.5791 13.8209 11.4 13.6 11.4H12Z" fill="#0f172a"/>
    <path d="M12 15.6V16.8H13.6C13.8209 16.8 14 16.6209 14 16.4V16C14 15.7791 13.8209 15.6 13.6 15.6H12Z" fill="#0f172a"/>
  </g>
</svg>
