<svg width="60" height="60" viewBox="0 0 60 60" fill="none" xmlns="http://www.w3.org/2000/svg">
<circle cx="30" cy="30" r="30" fill="white"/>
<rect x="24.4267" y="21.774" width="2.22222" height="14.4444" transform="rotate(15 24.4267 21.774)" fill="#1D2530"/>
<rect x="29.5811" y="35.8086" width="2.22222" height="2.22222" transform="rotate(15 29.5811 35.8086)" fill="#1D2530"/>
<rect x="32.0974" y="26.4177" width="2.22222" height="7.5" transform="rotate(15 32.0974 26.4177)" fill="#1D2530"/>
<rect x="37.0374" y="25.1531" width="2.22222" height="14.4444" transform="rotate(15 37.0374 25.1531)" fill="#1D2530"/>
<rect x="31.1524" y="38.5302" width="2.22222" height="2.22222" transform="rotate(15 31.1524 38.5302)" fill="#1D2530"/>
<rect x="22.8347" y="36.3015" width="2.22222" height="2.22222" transform="rotate(15 22.8347 36.3015)" fill="#1D2530"/>
<rect x="30.5773" y="40.6768" width="2.22222" height="2.22222" transform="rotate(15 30.5773 40.6768)" fill="#1D2530"/>
<rect x="22.2596" y="38.4481" width="2.22222" height="2.22222" transform="rotate(15 22.2596 38.4481)" fill="#1D2530"/>
<rect x="35.1888" y="14.8802" width="2.22222" height="2.22222" transform="rotate(15 35.1888 14.8802)" fill="#1D2530"/>
<rect x="34.6136" y="17.0267" width="2.22222" height="2.22222" transform="rotate(15 34.6136 17.0267)" fill="#1D2530"/>
<rect x="27.2805" y="44.3946" width="2.22222" height="2.22222" transform="rotate(15 27.2805 44.3946)" fill="#1D2530"/>
<rect x="35.8665" y="46.6952" width="2.22222" height="2.22222" transform="rotate(15 35.8665 46.6952)" fill="#1D2530"/>
<rect x="35.4454" y="39.6805" width="2.22222" height="2.22222" transform="rotate(15 35.4454 39.6805)" fill="#1D2530"/>
<rect x="18.5417" y="35.1511" width="2.22222" height="2.22222" transform="rotate(15 18.5417 35.1511)" fill="#1D2530"/>
<rect x="33.6175" y="12.1584" width="2.22222" height="2.22222" transform="rotate(15 33.6175 12.1584)" fill="#1D2530"/>
<rect x="25.7091" y="41.6729" width="2.22222" height="2.22222" transform="rotate(15 25.7091 41.6729)" fill="#1D2530"/>
<rect x="19.1169" y="33.0048" width="2.22222" height="2.22222" transform="rotate(15 19.1169 33.0048)" fill="#1D2530"/>
<rect x="36.0206" y="37.5341" width="2.22222" height="2.22222" transform="rotate(15 36.0206 37.5341)" fill="#1D2530"/>
<rect x="18.1207" y="28.1365" width="2.22222" height="11.1111" transform="rotate(15 18.1207 28.1365)" fill="#1D2530"/>
<rect x="39.3174" y="33.8162" width="2.22222" height="11.1111" transform="rotate(15 39.3174 33.8162)" fill="#1D2530"/>
<rect x="15.399" y="29.7079" width="2.22222" height="6.66667" transform="rotate(15 15.399 29.7079)" fill="#1D2530"/>
<rect x="40.8887" y="36.5378" width="2.22222" height="6.66667" transform="rotate(15 40.8887 36.5378)" fill="#1D2530"/>
<rect x="24.5588" y="45.9659" width="2.22222" height="2.22222" transform="rotate(15 24.5588 45.9659)" fill="#1D2530"/>
<rect x="30.8958" y="13.7299" width="2.22222" height="2.22222" transform="rotate(15 30.8958 13.7299)" fill="#1D2530"/>
<rect x="30.3207" y="15.8763" width="2.22222" height="2.22222" transform="rotate(15 30.3207 15.8763)" fill="#1D2530"/>
<rect x="22.9875" y="43.2443" width="2.22222" height="2.22222" transform="rotate(15 22.9875 43.2443)" fill="#1D2530"/>
<rect x="14.6698" y="41.0156" width="2.22222" height="2.22222" transform="rotate(15 14.6698 41.0156)" fill="#1D2530"/>
<rect x="27.599" y="17.4478" width="2.22222" height="5" transform="rotate(15 27.599 17.4478)" fill="#1D2530"/>
<rect x="36.185" y="19.7484" width="2.22222" height="5" transform="rotate(15 36.185 19.7484)" fill="#1D2530"/>
</svg>
